# xmcd
#
# Track frame offsets:
#	150
#	18716
#	39535
#	58139
#	77162
#	95989
#	119215
#	138474
#	160286
#	179895
#	200359
#	217884
#	236439
#	260831
#
# Disc length: 3728 seconds
#
# Revision: 1
# Processed by: cddbd v1.5.2PL0 Copyright (c) Steve Scherf et al.
# Submitted via: EasyCDDAExtractor 8.2.1.1
#
DISCID=dd0e8e0e
DTITLE=Trai - Love so fine
DYEAR=2009
DGENRE=Pop
TTITLE0=Always
TTITLE1=No reason
TTITLE2=Hesitate
TTITLE3=Friendship
TTITLE4=Bond
TTITLE5=Fragile boy (One hand can't clap)
TTITLE6=Scorpio
TTITLE7=When you're not here
TTITLE8=Lonely wolf
TTITLE9=Let me know
TTITLE10=Plants love
TTITLE11=Sad song
TTITLE12=Bon voyage
TTITLE13=I will
EXTD=
EXTT0=
EXTT1=
EXTT2=
EXTT3=
EXTT4=
EXTT5=
EXTT6=
EXTT7=
EXTT8=
EXTT9=
EXTT10=
EXTT11=
EXTT12=
EXTT13=
PLAYORDER=
